<?xml version="1.0" encoding="iso-8859-1"?>
<!-- Generator: Adobe Illustrator 19.0.0, SVG Export Plug-In . SVG Version: 6.00 Build 0)  -->
<svg version="1.1" id="Layer_1" xmlns="http://www.w3.org/2000/svg" xmlns:xlink="http://www.w3.org/1999/xlink" x="0px" y="0px"
	 viewBox="0 0 511.999 511.999" style="enable-background:new 0 0 511.999 511.999;" xml:space="preserve">
<g>
	<path style="fill:#F9A825;" d="M186.385,411.673l-4.506,4.421c-5.424,5.339-14.131,5.339-19.555,0l-14.199-14.114l-36.134-35.879
		l-14.284-14.114c-5.356-5.339-5.365-14.003-0.026-19.359c0.009-0.008,0.017-0.017,0.026-0.025l4.506-4.421
		c5.424-5.339,14.131-5.339,19.555,0l15.219,15.219l34.009,34.009l15.134,14.964c5.399,5.161,5.594,13.714,0.434,19.113
		C186.513,411.545,186.445,411.613,186.385,411.673z"/>
	<path style="fill:#F9A825;" d="M78.238,494.994l-4.506,4.506c-5.441,5.288-14.114,5.288-19.555,0l-40.64-39.875
		c-5.331-5.297-5.356-13.91-0.06-19.24c0.017-0.017,0.043-0.043,0.06-0.06l4.421-4.846c5.424-5.339,14.131-5.339,19.555,0
		l2.296,2.211l36.049,35.709l2.296,2.296c5.356,5.271,5.416,13.884,0.145,19.24C78.28,494.951,78.263,494.968,78.238,494.994z"/>
</g>
<polygon style="fill:#8D6E63;" points="100.003,449.677 75.942,473.483 39.893,437.689 63.954,413.968 "/>
<polygon style="fill:#6D4C41;" points="124.065,425.786 100.003,449.677 63.954,413.968 87.93,390.162 "/>
<polygon style="fill:#8D6E63;" points="148.126,402.065 124.065,425.786 87.93,390.162 111.992,366.271 "/>
<path style="fill:#A8A5A4;" d="M417.559,214.168c-170.043,82.896-246.563,163.241-246.563,163.241L136.988,343.4l0,0L349.542,103.64
	c0,0,86.127,6.122,132.804-54.839c8.834-11.69,15.669-24.767,20.235-38.685C502.581,10.116,508.532,169.786,417.559,214.168z"/>
<path style="fill:#BDBDBD;" d="M482.431,48.716c-6.632,50.503-26.017,121.241-81.791,148.363
	C230.597,279.974,154.077,360.32,154.077,360.32l-17.004-17.004l212.554-239.761C349.627,103.555,435.754,109.676,482.431,48.716z"
	/>
<path d="M172.187,428.677c-5.917,0.017-11.597-2.304-15.814-6.462l-64.616-63.936c-8.672-8.698-8.672-22.76,0-31.458l4.591-4.506
	c8.74-8.63,22.803-8.63,31.543,0l64.616,63.936c8.689,8.511,8.825,22.454,0.315,31.143c-0.102,0.111-0.213,0.213-0.315,0.315
	l-4.506,4.506C183.809,426.399,178.113,428.728,172.187,428.677z M111.992,332.858c-1.437,0.009-2.814,0.595-3.826,1.615
	l-4.506,4.421c-2.007,2.023-2.007,5.288,0,7.312l64.616,63.936c2.092,2.083,5.475,2.083,7.567,0l4.591-4.506
	c1.998-1.922,2.058-5.101,0.136-7.091c-0.043-0.043-0.085-0.094-0.136-0.136l-64.616-63.936
	C114.814,333.444,113.437,332.858,111.992,332.858z"/>
<path d="M63.869,511.998c-5.849,0.008-11.469-2.279-15.644-6.377l-40.64-40.215c-8.638-8.63-8.655-22.624-0.026-31.262
	c0.009-0.008,0.017-0.017,0.026-0.025l4.506-4.421c8.74-8.63,22.803-8.63,31.543,0l2.211,2.126l38.43,37.92
	c8.664,8.604,8.715,22.599,0.111,31.262c-0.034,0.034-0.077,0.077-0.111,0.111l-4.506,4.506
	C75.509,509.737,69.804,512.032,63.869,511.998z M27.82,439.985c-1.428-0.009-2.797,0.536-3.826,1.53l-4.506,4.421
	c-1.998,1.99-1.998,5.22-0.009,7.218l0.009,0.009l40.98,40.47c2.151,2.007,5.501,2.007,7.652,0l4.421-4.421
	c1.947-1.981,1.947-5.161,0-7.142l-40.81-40.385C30.711,440.606,29.3,439.993,27.82,439.985z"/>
<path d="M75.942,485.131L27.82,437.689l36.134-35.794l48.122,47.697L75.942,485.131z M51.966,437.774l23.976,23.721l11.988-11.818
	l-23.976-24.061L51.966,437.774z"/>
<path d="M100.003,461.581l-48.037-47.612l36.049-35.794l48.122,47.442L100.003,461.581z M76.027,413.883l23.976,23.721
	l11.988-11.988L87.93,401.895L76.027,413.883z"/>
<path d="M124.065,437.774l-48.207-47.612l36.134-35.794l48.207,47.697L124.065,437.774z M100.003,390.077l24.061,23.721
	l11.988-11.818l-24.061-23.721L100.003,390.077z"/>
<rect x="117.047" y="425.247" transform="matrix(0.7071 -0.7071 0.7071 0.7071 -265.4254 213.9512)" width="17.004" height="4.251"/>
<rect x="92.956" y="449.041" transform="matrix(0.7066 -0.7076 0.7076 0.7066 -289.4515 204.1491)" width="17.004" height="4.166"/>
<path d="M170.996,385.911c-2.228-0.009-4.37-0.893-5.952-2.466l-34.009-34.009c-3.078-3.273-3.078-8.375,0-11.648L343.59,97.943
	c1.76-1.964,4.336-3.001,6.972-2.806c20.711,0.604,41.372-2.27,61.13-8.502c39.212-10.764,70.372-40.555,82.896-79.24
	c1.581-4.421,6.445-6.725,10.866-5.144c3.214,1.148,5.433,4.115,5.628,7.524c0,6.717,5.016,165.792-89.783,212.044
	C254.913,302.93,178.138,382.51,177.373,383.361c-1.573,1.658-3.749,2.602-6.037,2.636L170.996,385.911z M148.466,343.4
	l22.531,22.021c21.34-20.49,98.03-88.422,242.652-158.905c57.9-28.227,74.224-108.573,78.645-157.205
	c-42.511,60.28-119.965,63.256-139.18,63.001L148.466,343.4z"/>
<g>
	<path style="fill:#F9A825;" d="M325.906,411.673l4.506,4.421c5.424,5.339,14.131,5.339,19.555,0l14.199-14.114l36.389-35.879
		l14.284-14.114c5.356-5.339,5.365-14.003,0.025-19.359c-0.008-0.008-0.017-0.017-0.025-0.025l-4.506-4.421
		c-5.424-5.339-14.131-5.339-19.555,0L375.048,343.4l-34.009,34.009l-15.134,14.964c-5.331,5.229-5.407,13.791-0.187,19.113
		C325.787,411.554,325.846,411.613,325.906,411.673z"/>
	<path style="fill:#F9A825;" d="M434.053,494.994l4.506,4.506c5.441,5.288,14.114,5.288,19.555,0l40.64-39.875
		c5.331-5.297,5.356-13.91,0.06-19.24c-0.017-0.017-0.043-0.043-0.06-0.06l-4.676-4.846c-5.424-5.339-14.131-5.339-19.555,0
		l-2.296,2.211l-36.049,35.709l-2.296,2.296c-5.28,5.339-5.237,13.952,0.111,19.24C434.011,494.951,434.036,494.968,434.053,494.994
		z"/>
</g>
<polygon style="fill:#8D6E63;" points="412.288,449.677 436.349,473.483 472.398,437.689 448.337,413.968 "/>
<polygon style="fill:#6D4C41;" points="388.227,425.786 412.288,449.677 448.337,413.968 424.361,390.162 "/>
<polygon style="fill:#8D6E63;" points="364.166,402.065 388.227,425.786 424.361,390.162 400.3,366.271 "/>
<path style="fill:#A8A5A4;" d="M94.477,214.168C264.52,297.064,341.04,377.409,341.04,377.409l34.009-34.009l0,0L162.494,103.64
	c0,0-85.957,6.037-132.634-54.924c-8.893-11.682-15.789-24.75-20.405-38.685C9.455,10.031,3.759,169.786,94.477,214.168z"/>
<path style="fill:#BDBDBD;" d="M29.861,48.716c6.632,50.503,26.017,121.241,81.621,148.448
	c170.043,82.896,246.563,163.241,246.563,163.241l17.004-17.004L162.494,103.64C162.494,103.64,76.537,109.676,29.861,48.716z"/>
<path d="M340.104,428.677c-6.02,0.085-11.827-2.27-16.069-6.547l-4.421-4.336c-8.706-8.485-8.893-22.429-0.4-31.143
	c0.136-0.136,0.264-0.272,0.4-0.4l64.616-63.936c8.732-8.579,22.726-8.579,31.458,0l4.506,4.421
	c8.689,8.647,8.723,22.692,0.077,31.381c-0.025,0.026-0.051,0.051-0.077,0.077l-64.616,63.936
	C351.463,426.229,345.92,428.584,340.104,428.677z M331.602,405.721l4.506,4.421c2.117,2.1,5.535,2.1,7.652,0l64.616-63.936
	c2.007-2.023,2.007-5.288,0-7.312l-4.421-4.336c-2.109-2.041-5.458-2.041-7.567,0l-64.616,63.936
	c-2.015,1.896-2.117,5.067-0.221,7.091c0.068,0.077,0.145,0.153,0.221,0.221L331.602,405.721z"/>
<path d="M448.337,511.998c-5.858,0.026-11.503-2.228-15.729-6.292l-4.591-4.591c-8.664-8.604-8.715-22.599-0.111-31.262
	c0.034-0.034,0.077-0.077,0.111-0.111l40.555-40.385c8.706-8.57,22.667-8.57,31.373,0l4.591,4.591
	c8.664,8.604,8.715,22.599,0.111,31.262c-0.034,0.034-0.077,0.077-0.111,0.111l-40.64,40.215
	C459.755,509.635,454.169,511.956,448.337,511.998z M484.471,439.985c-1.403-0.009-2.746,0.544-3.741,1.53l-2.381,2.296
	l-38.26,37.92c-1.998,1.99-1.998,5.22-0.008,7.218l0.008,0.009l4.591,4.506c2.143,1.955,5.424,1.955,7.567,0l40.64-40.215
	c1.998-1.99,1.998-5.22,0.008-7.218l-0.008-0.008l-4.591-4.506c-1.037-1.02-2.457-1.573-3.911-1.53H484.471z"/>
<path d="M436.349,485.131l-35.794-35.454l48.122-47.697l36.134,35.794L436.349,485.131z M424.361,449.592l11.988,11.818
	l23.721-23.636l-11.733-12.158L424.361,449.592z"/>
<path d="M412.288,461.581l-36.219-35.964l48.207-47.697l35.794,36.049L412.288,461.581z M400.555,425.616l11.988,11.818
	l23.976-23.721l-11.903-11.818L400.555,425.616z"/>
<path d="M388.227,437.774l-36.134-35.794l48.462-47.612l36.134,35.794L388.227,437.774z M376.239,401.98l11.988,11.818
	l24.061-23.721l-11.733-11.818L376.239,401.98z"/>
<rect x="384.513" y="418.832" transform="matrix(0.7071 -0.7071 0.7071 0.7071 -188.9268 398.5576)" width="4.251" height="17.004"/>
<rect x="408.638" y="442.626" transform="matrix(0.7071 -0.7071 0.7071 0.7071 -198.6986 422.5562)" width="4.166" height="17.004"/>
<path d="M341.04,385.911L341.04,385.911c-2.287-0.034-4.464-0.978-6.037-2.636c-0.765-0.765-77.54-80.345-243.927-161.541
	C-3.893,175.568,0.953,16.493,0.953,9.776C0.299,5.083,3.572,0.738,8.265,0.083s9.038,2.619,9.692,7.312
	c12.541,38.838,43.854,68.706,83.236,79.41c19.759,6.232,40.419,9.106,61.131,8.502c2.636-0.196,5.212,0.842,6.972,2.806
	L381.85,337.959c3.078,3.273,3.078,8.375,0,11.648l-34.009,34.009C346.022,385.35,343.539,386.183,341.04,385.911z M19.658,49.226
	c4.506,48.632,20.745,128.978,78.645,157.205c144.537,70.483,221.056,138.415,242.652,158.905l22.531-22.361L158.923,112.227
	C139.709,112.397,61.914,109.506,19.658,49.226z"/>
<g>
</g>
<g>
</g>
<g>
</g>
<g>
</g>
<g>
</g>
<g>
</g>
<g>
</g>
<g>
</g>
<g>
</g>
<g>
</g>
<g>
</g>
<g>
</g>
<g>
</g>
<g>
</g>
<g>
</g>
</svg>
