<svg height="512pt" viewBox="0 0 512 512" width="512pt" xmlns="http://www.w3.org/2000/svg"><path d="m338.382812 292.902344 80.996094 53.992187-16.640625 24.960938-80.996093-53.992188zm0 0" fill="#00ab5e"/><path d="m402.710938 140.179688 16.640624 24.960937-80.996093 53.992187-16.640625-24.960937zm0 0" fill="#00ab5e"/><path d="m75 241h91v30h-91zm0 0" fill="#5bc980"/><path d="m346 241h92.242188v30h-92.242188zm0 0" fill="#00ab5e"/><path d="m173.632812 219.113281-81.992187-53.992187 16.640625-24.960938 81.992188 53.992188zm0 0" fill="#5bc980"/><path d="m108.28125 371.839844-16.640625-24.960938 81.992187-53.992187 16.640626 24.960937zm0 0" fill="#5bc980"/><path d="m177.699219 451h156.601562v30h-156.601562zm0 0" fill="#ffda2d"/><path d="m256 451h78.300781v30h-78.300781zm0 0" fill="#eebf00"/><path d="m189.101562 301h133.796876v30h-133.796876zm0 0" fill="#ffda2d"/><path d="m256 301h66.898438v30h-66.898438zm0 0" fill="#eebf00"/><path d="m166 241h180v30h-180zm0 0" fill="#ffda2d"/><path d="m256 241h90v30h-90zm0 0" fill="#eebf00"/><path d="m189.101562 181h133.796876v30h-133.796876zm0 0" fill="#ffda2d"/><path d="m256 181h66.898438v30h-66.898438zm0 0" fill="#eebf00"/><path d="m177.699219 31h156.601562v30h-156.601562zm0 0" fill="#ffda2d"/><path d="m256 31h78.300781v30h-78.300781zm0 0" fill="#eebf00"/><path d="m361 256c0 54.898438-54.902344 106.199219-105 151.5-1.199219 1.199219-2.402344 2.101562-3.601562 3.300781-33.296876 30.296875-71.398438 64.800781-71.398438 85.199219v16h-30v-16c0-33.601562 37.800781-67.800781 81.300781-107.402344 7.796875-7.199218 15.898438-14.398437 23.699219-21.898437 39-36.300781 75-75 75-110.699219s-36-74.402344-75-110.699219c-7.800781-7.5-15.902344-14.699219-23.699219-21.902343-43.5-39.597657-81.300781-73.796876-81.300781-107.398438v-16h30v16c0 20.398438 38.101562 54.898438 71.398438 85.199219 1.199218 1.199219 2.402343 2.101562 3.601562 3.300781 50.097656 45.300781 105 96.597656 105 151.5zm0 0" fill="#fa5e97"/><path d="m361 256c0 54.898438-54.902344 106.199219-105 151.5v-40.800781c39-36.300781 75-75 75-110.699219s-36-74.402344-75-110.699219v-40.800781c50.097656 45.300781 105 96.597656 105 151.5zm0 0" fill="#d94f88"/><path d="m181 256c0 35.699219 36 74.398438 75 110.699219 7.800781 7.5 15.902344 14.699219 23.699219 21.898437 43.5 39.601563 81.300781 73.800782 81.300781 107.402344v16h-30v-16c0-20.398438-38.101562-54.902344-71.398438-85.199219-1.199218-1.199219-2.402343-2.101562-3.601562-3.300781-50.097656-45.300781-105-96.601562-105-151.5 0-54.902344 54.902344-106.203125 105-151.5 1.199219-1.203125 2.402344-2.101562 3.601562-3.300781 33.296876-30.300781 71.398438-64.800781 71.398438-85.199219v-16h30v16c0 33.601562-37.800781 67.800781-81.300781 107.398438-7.796875 7.203124-15.898438 14.402343-23.699219 21.902343-39 36.296875-75 75-75 110.699219zm0 0" fill="#25d9f8"/><path d="m361 0v16c0 33.601562-37.800781 67.800781-81.300781 107.398438-7.796875 7.203124-15.898438 14.402343-23.699219 21.902343v-40.800781c1.199219-1.199219 2.402344-2.101562 3.601562-3.300781 33.296876-30.300781 71.398438-64.800781 71.398438-85.199219v-16zm0 0" fill="#00c0f1"/><path d="m361 496v16h-30v-16c0-20.398438-38.101562-54.902344-71.398438-85.199219-1.199218-1.199219-2.402343-2.101562-3.601562-3.300781v-40.800781c7.800781 7.5 15.902344 14.699219 23.699219 21.898437 43.5 39.601563 81.300781 73.800782 81.300781 107.402344zm0 0" fill="#00c0f1"/><g fill="#5bc980"><path d="m436 421c-24.8125 0-45-20.1875-45-45s20.1875-45 45-45 45 20.1875 45 45-20.1875 45-45 45zm0 0"/><path d="m436 181c-24.8125 0-45-20.1875-45-45s20.1875-45 45-45 45 20.1875 45 45-20.1875 45-45 45zm0 0"/><path d="m466 301c-24.8125 0-45-20.1875-45-45s20.1875-45 45-45 46 20.1875 46 45-21.1875 45-46 45zm0 0"/></g><path d="m45 301c-24.8125 0-45-20.1875-45-45s20.1875-45 45-45 45 20.1875 45 45-20.1875 45-45 45zm0 0" fill="#7fe881"/><path d="m75 181c-24.8125 0-45-20.1875-45-45s20.1875-45 45-45 45 20.1875 45 45-20.1875 45-45 45zm0 0" fill="#7fe881"/><path d="m75 421c-24.8125 0-45-20.1875-45-45s20.1875-45 45-45 45 20.1875 45 45-20.1875 45-45 45zm0 0" fill="#7fe881"/></svg>